<svg viewBox="0 0 1257 1024" width="18" height="18"><path d="M472.576 654.848c0-190.976 179.2-346.624 406.528-346.624h13.312C852.48 131.072 661.504 0 444.928 0 200.192 0 0 166.912 0 377.856c0 122.368 66.56 222.72 177.664 300.544L133.12 813.056l155.648-78.336c51.712 12.8 104.448 20.48 157.696 22.528 14.336 0 28.16 0 41.472-2.048l2.56-3.072c-11.264-31.232-17.408-64-17.92-97.28z" fill="#6ECE46" p-id="8747"></path><path d="M1257.472 656.384c0-177.664-177.664-323.072-377.856-323.072-211.456 0-377.856 145.408-377.856 323.072s166.912 323.072 377.856 323.072c45.056-2.048 90.112-9.728 133.632-22.528l120.832 66.56-31.744-110.592c88.064-67.072 155.136-157.184 155.136-256.512z" fill="#6ECE46" p-id="8748"></path><path d="M611.84 188.928c29.184-2.048 53.76 20.48 55.808 49.152v6.656c2.048 29.184-20.48 53.76-49.152 55.808h-6.656c-33.792 2.048-62.976-22.528-66.56-55.808 3.584-33.28 32.768-57.856 66.56-55.808zM300.544 300.544c-33.792 2.56-63.488-22.016-67.072-55.808 3.584-33.792 33.28-58.368 67.072-55.808 29.184-1.536 53.76 20.48 55.296 49.664v6.144c1.536 29.184-20.48 53.76-49.152 55.808h-6.144z m455.168 300.544c-24.064-1.536-43.008-20.992-44.544-44.544 2.048-23.552 20.48-42.496 44.544-44.544 27.648-2.56 52.224 16.896 55.808 44.544-3.072 27.648-28.16 47.616-55.808 44.544z m245.76 0c-24.064-1.536-43.008-20.48-44.544-44.544 1.536-23.552 20.48-42.496 44.544-44.544 27.648-2.56 52.224 16.896 55.808 44.544-3.584 27.648-28.16 47.616-55.808 44.544z" fill="#FFFFFF" p-id="8749"></path></svg>
